<?xml version="1.0" encoding="UTF-8"?>
<!-- Generator: Adobe Illustrator 24.3.0, SVG Export Plug-In . SVG Version: 6.00 Build 0)  -->
<svg version="1.1" xmlns="http://www.w3.org/2000/svg" xmlns:xlink="http://www.w3.org/1999/xlink" x="0px" y="0px" viewBox="0 0 681.61 533.78" style="enable-background:new 0 0 681.61 533.78;" xml:space="preserve">
<style type="text/css">
	.st0{fill:#00913E;}
	.st1{fill:#0154D5;}
	.st2{fill:#EE8019;}
	.st3{fill:#F0BC00;}
	.st4{fill:#E679A6;}
	.st5{fill:#E9E7C4;}
	.st6{fill:#F5C200;}
	.st7{fill:#028B3F;}
	.st8{fill:#DC0816;}
	.st9{fill:#EA7AAC;}
	.st10{fill:#020304;}
	.st11{fill:#049DFF;}
	.st12{clip-path:url(#SVGID_2_);}
	.st13{fill:#1026B0;}
	.st14{fill:#1E1232;}
	.st15{fill:#E49924;}
	.st16{fill:#0491FF;}
	.st17{fill:none;stroke:#62FC06;stroke-width:0.3063;stroke-miterlimit:10;}
	.st18{fill:none;stroke:#000000;stroke-width:8.1291;stroke-miterlimit:10;}
	.st19{fill:none;stroke:#000000;stroke-width:0.5314;stroke-miterlimit:10;}
	.st20{fill:none;stroke:#000000;stroke-width:7.7722;stroke-miterlimit:10;}
	.st21{fill:#E7E5C2;}
	.st22{fill:#025BC7;}
	.st23{clip-path:url(#SVGID_4_);}
	.st24{clip-path:url(#SVGID_6_);}
	.st25{fill:#5B1A0E;}
	.st26{fill:#FFFFFF;}
	.st27{fill:#F69225;}
	.st28{fill:#EFEDCA;}
	.st29{fill:#561309;}
	.st30{fill:none;stroke:#000000;stroke-width:10.905;stroke-miterlimit:10;}
	.st31{fill:#EDBCD2;}
	.st32{clip-path:url(#SVGID_8_);}
	.st33{fill:none;stroke:#FBF3A0;stroke-width:1.296;stroke-miterlimit:10;}
	.st34{fill:#1F1332;}
	.st35{fill:#E69B23;}
	.st36{fill:#F08C25;}
	.st37{fill:#5D1A16;}
	.st38{fill:none;stroke:#5AFD06;stroke-width:0.9072;stroke-miterlimit:10;}
	.st39{fill:#F3B5A9;}
	.st40{fill:#E4E1BF;}
	.st41{fill:#F3AD17;}
	.st42{clip-path:url(#SVGID_10_);}
	.st43{fill:#EE6807;}
	.st44{clip-path:url(#SVGID_12_);}
	.st45{fill:#C4681F;}
	.st46{fill:#711C13;}
	.st47{clip-path:url(#SVGID_14_);}
	.st48{clip-path:url(#SVGID_14_);fill:#EDBCD2;}
	.st49{clip-path:url(#SVGID_16_);}
	.st50{fill:#DC0816;stroke:#000000;stroke-width:7.8223;stroke-miterlimit:10;}
	.st51{fill:#DC0816;stroke:#000000;stroke-width:9.4667;stroke-miterlimit:10;}
	.st52{fill:#DC0C18;}
	.st53{fill:#F7B821;}
	.st54{clip-path:url(#SVGID_18_);}
	.st55{fill:none;stroke:#05FF28;stroke-miterlimit:10;}
	.st56{fill:#CA6820;}
	.st57{display:none;fill:none;stroke:#000000;stroke-width:1.5;stroke-linecap:square;stroke-miterlimit:10;}
	.st58{fill:none;stroke:#000000;stroke-width:1.5;stroke-linecap:square;stroke-miterlimit:10;}
	.st59{fill:#008B3F;}
	.st60{fill:#F6C200;}
	.st61{fill:#B76032;}
	.st62{fill:#010101;}
	.st63{fill:#295CA8;}
	.st64{fill:#FEF1E2;}
	.st65{fill:#F39126;}
	.st66{fill:#EDEBC8;}
	.st67{fill:#1D1D1B;}
	.st68{fill:#EC79AC;}
	.st69{fill:#F5A67D;}
	.st70{filter:url(#Adobe_OpacityMaskFilter);}
	.st71{mask:url(#SVGID_19_);}
	.st72{fill:#00913F;}
	.st73{fill:#6C2F10;}
	.st74{fill:#2D57A4;}
	.st75{fill:#893E13;}
	.st76{fill:none;}
</style>
<g id="KUEBIKO_BG">
</g>
<g id="KUEBIKO_FARBE">
</g>
<g id="KUEBIKO">
</g>
<g id="FIREWORK_BG_1_">
</g>
<g id="FIREWORK_FARBE">
</g>
<g id="FIREWORK">
</g>
<g id="PP_FARBE">
</g>
<g id="PAP">
	<g>
		<path class="st8" d="M91.46,0C91.46,0,0,0,0,91.18V442.6c0,0,0,91.19,91.46,91.19h498.7c0,0,91.46,0,91.46-91.19V91.18    c0,0,0-91.18-91.46-91.18H91.46z"/>
		<path d="M105.65,522.42l-5.1-3.17c9.36-15.07,8.45-30.91,2.63-41.12c-3.91,4.93-10.38,7.24-15.83,5.5    c-3.38-1.08-6.24-3.96-7.47-7.53c-1.12-3.24-0.75-6.58,1-9.16c1.73-2.55,4.37-4.08,7.62-4.42c4.12-0.43,9.06,1.2,12.83,4.14    c0.2-1.96,0.12-3.85-0.06-5.44c-1.89-16.72-16.22-29.52-27.91-37.32c-14.94-9.96-31.38-17.03-48.88-21.01l1.33-5.85    c18.22,4.14,35.34,11.5,50.88,21.87c18.28,12.19,28.85,26.59,30.54,41.64c0.36,3.17,0.39,7.32-0.87,11.4    C117.28,486.49,114.55,508.08,105.65,522.42z M89.87,468.45c-0.25,0-0.5,0.01-0.74,0.04c-1.48,0.16-2.55,0.75-3.28,1.82    c-0.68,1-0.79,2.39-0.29,3.82c0.62,1.79,2.04,3.27,3.62,3.77c3.27,1.04,7.45-0.73,9.75-4.12c0.17-0.26,0.34-0.52,0.49-0.78    c-0.24-0.25-0.48-0.49-0.73-0.73C96.29,469.99,92.71,468.45,89.87,468.45z"/>
		<path d="M658.6,124.39l-5.78-1.6c2.56-9.25,1.99-20.16-1.63-31.54c-2.68-8.42-7.99-19.49-18.05-24.38    c-0.03-0.01-0.05-0.02-0.08-0.04c-0.57,2.25-1.53,4.33-2.86,6.09c-1.86,2.46-4.3,4.11-6.87,4.64c-3.45,0.71-6.94-0.66-8.69-3.41    c-1.92-3.01-1.42-7.29,1.21-10.41c2.93-3.47,7.29-4.66,11.6-4.43c-0.04-0.25-0.09-0.5-0.15-0.76c-0.78-3.54-2.67-7.1-5.8-10.88    c-10.01-12.13-26.56-18.61-42.15-16.53l-0.8-5.95c17.59-2.36,36.27,4.96,47.57,18.65c3.74,4.53,6.04,8.92,7.03,13.41    c0.24,1.1,0.4,2.21,0.46,3.32c0.74,0.27,1.45,0.57,2.13,0.89c11.98,5.82,18.12,18.41,21.15,27.96    C660.88,101.93,661.46,114.02,658.6,124.39z M626.44,65.26c-2.39,0-4.6,0.7-6,2.36c-0.89,1.06-1.22,2.54-0.74,3.31    c0.4,0.62,1.47,0.96,2.42,0.76c1.14-0.23,2.31-1.08,3.29-2.37c0.86-1.15,1.49-2.52,1.86-4.02    C626.99,65.27,626.72,65.26,626.44,65.26z"/>
		<path d="M103.05,92.22c-3.77,0-6.82-1.65-9.42-3.06c-3.7-2-5.96-3.07-9.4-1.78l-2.11-5.62c6.17-2.31,10.71,0.15,14.36,2.12    c3.7,2,5.96,3.07,9.4,1.78c3.44-1.29,4.44-3.58,5.91-7.52c1.45-3.89,3.26-8.73,9.42-11.04c6.17-2.32,10.71,0.15,14.37,2.12    c3.7,2,5.96,3.07,9.4,1.78c3.44-1.29,4.44-3.58,5.91-7.52c1.45-3.89,3.26-8.73,9.43-11.04c6.17-2.31,10.71,0.15,14.36,2.12    c3.7,2,5.96,3.07,9.4,1.78c3.44-1.29,4.44-3.58,5.91-7.53c1.45-3.89,3.26-8.73,9.43-11.04c6.17-2.31,10.71,0.15,14.37,2.12    c3.7,2,5.96,3.07,9.4,1.78c3.44-1.29,4.44-3.58,5.92-7.53c1.45-3.89,3.26-8.73,9.43-11.04l2.11,5.62    c-3.44,1.29-4.44,3.58-5.92,7.53c-1.45,3.89-3.26,8.73-9.43,11.04c-6.17,2.32-10.71-0.14-14.37-2.12c-3.7-2-5.96-3.07-9.4-1.78    c-3.44,1.29-4.44,3.58-5.91,7.53c-1.45,3.89-3.26,8.73-9.43,11.04c-6.17,2.31-10.71-0.15-14.36-2.12c-3.7-2-5.96-3.07-9.4-1.78    c-3.44,1.29-4.44,3.58-5.91,7.52c-1.45,3.89-3.26,8.73-9.43,11.04c-6.17,2.31-10.71-0.15-14.36-2.12c-3.7-2-5.96-3.07-9.4-1.78    c-3.44,1.29-4.44,3.58-5.91,7.52c-1.45,3.89-3.26,8.73-9.42,11.04C106.21,91.95,104.57,92.22,103.05,92.22z"/>
		<path d="M641.42,392.15l-5.97-0.58c0.36-3.66-1.26-5.57-4.15-8.62c-2.85-3.02-6.4-6.77-5.77-13.33c0.64-6.56,4.85-9.56,8.23-11.96    c3.43-2.44,5.38-4,5.74-7.66c0.36-3.66-1.26-5.56-4.15-8.62c-2.85-3.02-6.41-6.77-5.77-13.33c0.64-6.56,4.85-9.55,8.23-11.96    c3.43-2.44,5.38-4,5.74-7.66s-1.26-5.56-4.15-8.62c-2.85-3.02-6.41-6.77-5.77-13.33s4.85-9.55,8.23-11.96    c3.43-2.44,5.38-4,5.74-7.66c0.36-3.66-1.26-5.56-4.15-8.62c-2.85-3.02-6.4-6.77-5.77-13.33c0.64-6.55,4.85-9.55,8.23-11.96    c3.43-2.44,5.38-4,5.74-7.66l5.97,0.58c-0.64,6.56-4.85,9.55-8.23,11.96c-3.43,2.44-5.38,4-5.74,7.66    c-0.36,3.66,1.26,5.56,4.15,8.62c2.85,3.02,6.4,6.77,5.77,13.33c-0.64,6.56-4.85,9.55-8.23,11.96c-3.43,2.44-5.38,4-5.74,7.66    c-0.36,3.66,1.26,5.57,4.15,8.62c2.85,3.02,6.4,6.77,5.77,13.33c-0.64,6.56-4.85,9.55-8.23,11.96c-3.43,2.44-5.38,4-5.74,7.66    c-0.36,3.66,1.26,5.57,4.15,8.62c2.85,3.02,6.4,6.77,5.77,13.33c-0.64,6.56-4.85,9.56-8.23,11.96c-3.43,2.44-5.38,4-5.74,7.66    c-0.36,3.66,1.26,5.57,4.15,8.62C638.51,381.84,642.06,385.59,641.42,392.15z"/>
		<path d="M157.47,406.92c-1.82,0-3.78-0.38-5.9-1.38c-5.96-2.8-7.37-7.78-8.51-11.77c-1.15-4.05-1.96-6.41-5.29-7.98    c-3.33-1.57-5.67-0.68-9.52,1.02c-3.8,1.68-8.53,3.76-14.49,0.96c-5.96-2.8-7.37-7.77-8.5-11.77c-1.15-4.05-1.96-6.41-5.29-7.98    c-3.33-1.56-5.67-0.68-9.51,1.02c-3.8,1.67-8.53,3.76-14.49,0.96c-5.96-2.8-7.37-7.77-8.5-11.77c-1.15-4.05-1.96-6.41-5.29-7.98    s-5.67-0.68-9.51,1.02c-3.8,1.67-8.53,3.76-14.49,0.96c-5.96-2.8-7.37-7.77-8.5-11.77c-1.15-4.05-1.96-6.41-5.28-7.98l2.55-5.43    c5.96,2.8,7.37,7.77,8.5,11.77c1.15,4.05,1.96,6.41,5.28,7.98c3.32,1.56,5.66,0.68,9.51-1.02c3.8-1.67,8.53-3.76,14.49-0.96    c5.96,2.8,7.37,7.77,8.5,11.77c1.15,4.05,1.96,6.41,5.29,7.98c3.33,1.56,5.67,0.68,9.51-1.02c3.8-1.67,8.52-3.76,14.49-0.96    c5.96,2.8,7.37,7.78,8.5,11.77c1.15,4.05,1.96,6.41,5.29,7.98c3.33,1.57,5.67,0.68,9.52-1.02c3.8-1.68,8.53-3.76,14.49-0.96    c5.96,2.8,7.37,7.78,8.51,11.77c1.15,4.05,1.96,6.41,5.29,7.98c3.33,1.56,5.67,0.68,9.52-1.01c3.8-1.67,8.53-3.76,14.49-0.96    l-2.55,5.43c-3.33-1.57-5.67-0.68-9.52,1.02C163.61,405.67,160.77,406.92,157.47,406.92z"/>
		<path d="M121.89,202.76c-9.41,0-18.32-3.46-24.24-9.3c-12.5,5.28-28.37,4.34-40.37-2.76c-14.4-8.53-20.86-22.89-23.74-33.43    c-4.13-15.12-3.77-31.39,1.05-47.06l5.73,1.77c-4.49,14.58-4.83,29.69-1,43.71c2.59,9.48,8.34,22.35,21.01,29.85    c9.93,5.88,22.89,6.91,33.41,3.03c-0.32-0.52-0.62-1.06-0.89-1.61c-2.07-4.11-2.54-8.16-1.35-11.72    c1.56-4.68,6.12-8.16,10.86-8.29c2.94-0.07,5.76,1.19,7.69,3.47c2.01,2.38,2.86,5.59,2.26,8.59c-0.83,4.2-4.01,8.25-9,11.48    c5.94,4.88,14.95,7.3,23.73,5.87c11.86-1.92,22.93-10.29,27.55-20.82l5.49,2.41c-5.41,12.32-18.3,22.1-32.09,24.33    C125.96,202.6,123.91,202.76,121.89,202.76z M102.63,172.93c-0.04,0-0.07,0-0.11,0c-2.45,0.06-4.67,2.22-5.33,4.19    c-0.68,2.04-0.34,4.44,1.02,7.13c0.3,0.59,0.63,1.16,0.99,1.71c0.05-0.03,0.11-0.06,0.16-0.1c3.96-2.4,6.53-5.33,7.06-8.04    c0.24-1.21-0.13-2.57-0.96-3.55C104.94,173.65,104.03,172.93,102.63,172.93z"/>
		<g>
			<defs>
				<path id="SVGID_11_" d="M91.46,0C91.46,0,0,0,0,91.18V442.6c0,0,0,91.19,91.46,91.19h498.7c0,0,91.46,0,91.46-91.19V91.18      c0,0,0-91.18-91.46-91.18H91.46z"/>
			</defs>
			<clipPath id="SVGID_2_">
				<use xlink:href="#SVGID_11_" style="overflow:visible;"/>
			</clipPath>
			<g class="st12">
				<rect x="362.56" y="418.36" class="st45" width="101.27" height="264.27"/>
				<path d="M468.92,687.72H357.47V413.26h111.45V687.72z M367.66,677.53h91.08V423.45h-91.08V677.53z"/>
			</g>
			<rect x="419.67" y="402.98" class="st12" width="10.19" height="137.3"/>
			<g class="st12">
				<rect x="360.57" y="375.72" class="st45" width="199.65" height="42.64"/>
				<path d="M565.3,423.45H355.47v-52.82H565.3V423.45z M365.66,413.26h189.46v-32.45H365.66V413.26z"/>
			</g>
			<g class="st12">
				<path class="st13" d="M230.65,375.72L148.04,494.3c0,0-23.1,80.84,59.52,78.17S363.9,458.33,371.89,446.34      c7.99-11.99,49.74-70.62,49.74-70.62H230.65z"/>
				<path d="M203.63,577.63c-23.74,0-41.2-6.96-51.93-20.72c-19.42-24.9-9-62.42-8.55-64.01l0.23-0.82l0.48-0.7l84.13-120.77h203.52      l-5.73,8.05c-0.42,0.59-41.8,58.7-49.66,70.49l-0.17,0.26c-19.6,29.42-89.68,125.61-168.24,128.14      C206.34,577.61,204.97,577.63,203.63,577.63z M152.74,496.47c-1.28,5.17-7.87,35.18,7.01,54.21      c9.23,11.8,25.25,17.43,47.64,16.7c33.08-1.07,68.78-20.41,106.11-57.48c18.91-18.78,38.08-42.26,53.98-66.13l0.17-0.26      c6.24-9.36,32.35-46.16,44.11-62.7H233.31L152.74,496.47z"/>
			</g>
			<g class="st12">
				<path class="st16" d="M529.13,109.46c-1.52-0.14-3.04-0.22-4.55-0.24c-8.86-0.13-17.74,0-26.6,0c-31.07,0-62.14,0-93.21,0      c-29.46,0-58.91,0-88.37,0c-7.26,0-14.52,0-21.78,0v266.49h151.46h83.06h69.73c0,0,0-190,0-190.1c0-18.69-7.5-36.88-19.94-50.73      C566.89,121.52,547.4,111.1,529.13,109.46z"/>
				<path d="M603.94,380.81H289.52V104.13h208.45c2.95,0,5.89-0.01,8.84-0.03c5.84-0.03,11.88-0.06,17.83,0.03      c1.61,0.02,3.27,0.11,4.93,0.26h0c19.01,1.7,39.86,12.34,53.12,27.1c13.5,15.02,21.25,34.75,21.25,54.13V380.81z M299.7,370.62      h294.06v-185c0-16.9-6.79-34.15-18.64-47.33C563.67,125.55,545,116,528.67,114.54l0,0c-1.41-0.13-2.81-0.2-4.17-0.22      c-5.86-0.08-11.85-0.05-17.64-0.03c-2.96,0.01-5.93,0.03-8.89,0.03H299.7V370.62z"/>
			</g>
			<g class="st12">
				<path class="st16" d="M292.39,109.23c-42.19,0-76.39,34.2-76.39,76.39v190.1h152.79v-190.1      C368.78,143.43,334.58,109.23,292.39,109.23z"/>
				<path d="M373.88,380.81H210.9V185.62c0-44.93,36.56-81.49,81.49-81.49s81.49,36.56,81.49,81.49V380.81z M221.09,370.62h142.6      v-185c0-39.32-31.99-71.3-71.3-71.3c-39.32,0-71.3,31.99-71.3,71.3V370.62z"/>
			</g>
			<g class="st12">
				<path class="st8" d="M415.42,270.17V29.44h83.5l-26.2,25.76l26.2,23.1h-52.85v191.87C446.06,270.17,430.08,291.49,415.42,270.17      z"/>
				<path d="M429.89,284.74c-0.13,0-0.25,0-0.38,0c-6.9-0.14-13.05-4.07-18.28-11.68l-0.9-1.3V24.35h101.04L480.18,55l32.21,28.39      h-61.24v188.48l-1.02,1.36C449.25,274.42,441.17,284.74,429.89,284.74z M420.51,268.53c2.98,3.92,6.06,5.95,9.18,6.02      c0.06,0,0.12,0,0.19,0c4.44,0,8.86-3.78,11.1-6.23V73.21h44.47l-20.2-17.8l21.23-20.87h-65.96V268.53z"/>
			</g>
			<g class="st12">
				<polygon class="st21" points="368.78,227.81 156.92,227.81 202.67,375.72 368.78,375.72     "/>
				<path d="M373.88,380.81H198.92l-48.9-158.09h223.86V380.81z M206.43,370.62h157.26V232.91H163.83L206.43,370.62z"/>
			</g>
			<g class="st12">
				<polygon class="st13" points="192.01,250.02 201.78,282.89 234.2,282.89 222.66,250.02     "/>
				<path d="M241.39,287.98h-43.41l-12.8-43.05h41.08L241.39,287.98z M205.58,277.8h21.44l-7.97-22.68h-20.21L205.58,277.8z"/>
			</g>
			<rect x="328.36" y="256.48" class="st12" width="40.42" height="10.19"/>
			<rect x="335.92" y="272.77" class="st12" width="32.87" height="10.19"/>
			<rect x="344.8" y="290.11" class="st12" width="23.98" height="10.19"/>
			<rect x="352.35" y="307.44" class="st12" width="16.43" height="10.19"/>
			<polygon class="st12" points="360.57,410.12 260.88,410.12 227.22,379.48 234.08,371.95 264.82,399.94 360.57,399.94    "/>
			<path class="st12" d="M182.21,551.11c-11.87,0-23.55-1.79-35.02-5.39l3.04-9.72c31.53,9.88,65.09,4.8,99.75-15.1     c12.48-7.17,31.48-20.04,51.09-40.67c0.48-0.5,0.83-0.87,1.04-1.08c3.6-3.84,47.87-65.73,76.73-106.39l8.3,5.9     c-12.21,17.19-73.32,103.18-77.83,107.69c-0.17,0.17-0.46,0.48-0.86,0.89c-20.45,21.51-40.33,34.98-53.4,42.48     C230.26,543.97,205.88,551.11,182.21,551.11z"/>
			<path class="st12" d="M180.67,545.96h-10.19c0-18.36,12.22-35.59,20.3-46.99c2.41-3.4,4.49-6.34,5.64-8.44     c5.42-9.94,59.99-85.29,62.31-88.49l8.25,5.97c-15.7,21.67-57.37,79.61-61.61,87.39c-1.43,2.63-3.68,5.79-6.27,9.45     C191.76,515.21,180.67,530.85,180.67,545.96z"/>
			
				<rect x="190.56" y="109.83" transform="matrix(0.4472 -0.8944 0.8944 0.4472 -3.6112 245.8702)" class="st12" width="13.09" height="32.05"/>
			
				<rect x="218.84" y="86.38" transform="matrix(0.7518 -0.6594 0.6594 0.7518 -10.6962 173.7151)" class="st12" width="13.09" height="29.37"/>
			
				<rect x="250.61" y="65.14" transform="matrix(0.9694 -0.2454 0.2454 0.9694 -11.995 65.582)" class="st12" width="13.09" height="31.57"/>
			
				<rect x="279.57" y="67.6" transform="matrix(0.0788 -0.9969 0.9969 0.0788 197.2427 361.7268)" class="st12" width="29.53" height="13.09"/>
			<g class="st12">
				<path class="st13" d="M288.92,227.81v-56.44c0,0,2.39-53.92,38-53.92c2.78,0,7.33,3.74,9.47,5.17      c21.72,14.44,31.63,38.98,32.14,64.45c0.19,9.2-0.51,18.4-0.11,27.6c0.07,1.54,0.11,3.08,0.13,4.62      c0.05,2.84,0.11,5.68,0.16,8.53H288.92z"/>
				<path d="M373.91,232.91h-90.09l0.01-61.76c0.03-0.58,0.69-14.45,5.97-28.52c7.42-19.8,20.25-30.26,37.12-30.26      c3.59,0,7.09,2.3,10.96,5.08c0.51,0.36,0.96,0.69,1.33,0.94c21.28,14.15,33.82,39.14,34.42,68.58c0.08,4.21-0.01,8.44-0.1,12.53      c-0.11,4.93-0.22,10.03-0.01,14.96c0.07,1.58,0.11,3.16,0.14,4.74L373.91,232.91z M294.01,222.72h69.52l-0.06-3.34      c-0.03-1.5-0.06-2.99-0.13-4.49c-0.23-5.27-0.11-10.53,0-15.63c0.09-3.98,0.18-8.1,0.1-12.09      c-0.54-26.44-11.14-47.86-29.87-60.31c-0.46-0.3-1.01-0.7-1.63-1.15c-1.21-0.87-4-2.87-5.17-3.17      c-29.5,0.16-32.61,46.51-32.75,48.96V222.72z M326.69,122.53L326.69,122.53L326.69,122.53z"/>
			</g>
			<rect x="419.67" y="375.72" class="st12" width="10.19" height="42.64"/>
			<rect x="446.55" y="375.72" class="st12" width="10.19" height="42.64"/>
			<rect x="473.43" y="375.72" class="st12" width="10.19" height="42.64"/>
			<rect x="500.31" y="375.72" class="st12" width="10.19" height="42.64"/>
			<rect x="527.19" y="375.72" class="st12" width="10.19" height="42.64"/>
			<circle class="st12" cx="430.43" cy="260.99" r="5.66"/>
			<circle class="st12" cx="390.6" cy="391.38" r="5.66"/>
			<path class="st12" d="M532.79,127.3c9.45,2.85,18.61,7.22,26.74,13.33c3.72,3.44,7.05,7.3,9.99,11.39     c2.88,4.15,5.38,8.55,7.27,13.19c3.87,9.24,5.53,19.36,4.6,29.18c0.19-9.87-2.21-19.62-6.61-28.26c-2.16-4.34-4.87-8.37-7.9-12.1     c-3.09-3.68-6.5-7.09-10.25-10.07C549.9,137.11,541.71,131.52,532.79,127.3z"/>
			<path class="st12" d="M246.31,357.47c9.95-1.09,19.93-2.11,29.92-3c20.01,0.4,40.01,1.22,59.96,2.42     c-19.99,0.28-39.95,0.94-59.89,2.01C266.31,358.31,256.31,357.85,246.31,357.47z"/>
			
				<rect x="530.62" y="72.43" transform="matrix(0.1924 -0.9813 0.9813 0.1924 362.7179 598.7113)" class="st12" width="29.01" height="13.09"/>
			
				<rect x="571.87" y="83.87" transform="matrix(0.4995 -0.8663 0.8663 0.4995 214.9957 552.9612)" class="st12" width="28.35" height="13.09"/>
			
				<rect x="601.16" y="112.34" transform="matrix(0.8053 -0.5929 0.5929 0.8053 49.124 387.3621)" class="st12" width="26.34" height="13.09"/>
			
				<rect x="621.52" y="156.15" transform="matrix(0.9948 -0.1015 0.1015 0.9948 -13.2284 65.289)" class="st12" width="27.49" height="13.09"/>
		</g>
		<g>
			<polygon class="st7" points="437.4,375.63 598.7,240.56 598.7,375.72    "/>
			<path d="M603.8,380.81l-180.4-0.1l180.4-151.06V380.81z M451.41,370.54l142.21,0.08V251.46L451.41,370.54z"/>
		</g>
		<path d="M536.13,507.97l-0.42-5.98c13.99-0.98,25.38-4.83,33.83-11.42c4.29-3.34,7.72-7.47,10.11-11.95    c-3.54-3.54-6.33-7.82-8.01-12.57c-1.44-4.09-1.64-7.56-0.63-10.58c1.3-3.88,5.41-7.4,10.05-6.57c4.21,0.76,7.23,4.67,8.09,10.48    c0.86,5.83,0.03,11.93-2.22,17.7c5.05,3.84,11.34,6.09,17.7,5.97c11.89-0.22,23.08-8.63,26.6-20l5.73,1.78    c-4.26,13.76-17.82,23.95-32.22,24.22c-7.31,0.16-14.51-2.29-20.44-6.49c-2.74,4.79-6.49,9.17-11.08,12.75    C563.81,502.64,551.33,506.91,536.13,507.97z M579.72,454.78c-1.15,0-2.53,1.16-3.01,2.6c-0.57,1.71-0.38,3.9,0.6,6.68    c1.09,3.11,2.77,5.98,4.88,8.49c1.24-4.08,1.63-8.27,1.04-12.29c-0.37-2.49-1.5-5.14-3.21-5.45    C579.91,454.78,579.82,454.78,579.72,454.78z"/>
		<g>
			<rect x="22.05" y="232.34" class="st2" width="65.66" height="12"/>
			<rect x="73.77" y="259.65" class="st2" width="48.23" height="12"/>
			<rect x="54.88" y="290.44" class="st2" width="54.33" height="12"/>
			<rect x="128.97" y="309.62" class="st2" width="31.38" height="12"/>
			<rect x="147.56" y="340.41" class="st2" width="27.31" height="12"/>
		</g>
	</g>
</g>
<g id="NAZAR_BG">
</g>
<g id="NAZAR_COLORS">
</g>
<g id="NAZAR">
</g>
<g id="WIKIQUOTE_BG">
</g>
<g id="WIKIQUOTE_FARBE">
</g>
<g id="WIKIQUOTE">
</g>
<g id="WIKIVOYAGE_BG">
</g>
<g id="WIKIVOYAGE_FARBE_1_">
</g>
<g id="WIKIVOYAGE_1_">
</g>
<g id="HAMSA_BG">
</g>
<g id="HAMSA_FARBE">
</g>
<g id="HAMSA">
</g>
<g id="WWW">
</g>
<g id="FOTO_1_">
</g>
<g id="HUMAN_FIGURE">
</g>
<g id="GLASSES">
</g>
<g id="KINTSUGI">
</g>
<g id="RANGOLI">
</g>
<g id="HENNA">
</g>
<g id="BASKETBALL">
	<g id="Ebene_42">
	</g>
</g>
<g id="RUG">
</g>
<g id="KAABA">
</g>
<g id="WIKINEWS">
</g>
<g id="COMMONS">
</g>
<g id="BIWA">
</g>
<g id="_x2B_">
</g>
<g id="IBIS_OF_THOTH">
</g>
<g id="SERPENT">
</g>
<g id="TREE_BG_1_">
</g>
<g id="TREE_FARBEN">
</g>
<g id="TREE_1_">
</g>
<g id="BAPHO_BG_1_">
</g>
<g id="BAPHO_FARBE">
</g>
<g id="BAPHO">
</g>
<g id="SALAM_BG">
</g>
<g id="SALAM_FARBE">
</g>
<g id="SALAM">
</g>
<g id="PAINTING_EASLE_BG">
</g>
<g id="PAINTING_EASLE_FARBE">
</g>
<g id="PAINTING_EASLE_FARBEN">
</g>
<g id="WHEAT_BG">
</g>
<g id="WHEAT_FARBE">
</g>
<g id="WHEAT">
</g>
<g id="SMILE_BG">
</g>
<g id="SMILE_FARBE">
</g>
<g id="SMILE">
</g>
<g id="WIFI_BG">
</g>
<g id="Layer_142">
</g>
<g id="WIFI_FARBE">
</g>
<g id="WIFI">
</g>
<g id="WIND">
</g>
<g id="CHIC_x40_S_1_">
</g>
<g id="ESC">
</g>
<g id="SPRAYCAN_1_">
</g>
<g id="PACHAMAMA">
</g>
<g id="THUNDERBIRD">
</g>
<g id="MARSHA">
</g>
<g id="ARROW">
</g>
<g id="WKTK">
</g>
<g id="psst">
</g>
<g id="WIKIPEDIA">
</g>
<g id="WIKTIONARY_1_">
</g>
<g id="WIKIDATA_1_">
</g>
<g id="RAVEN">
</g>
<g id="OWL_ATHENA">
</g>
<g id="GHYAMA">
</g>
<g id="Ebene_170">
</g>
<g id="BRAILLE">
</g>
<g id="EYE_OF_HORUS">
</g>
<g id="PARTY_ELEMENT">
</g>
<g id="CAKE">
</g>
<g id="PAPERPLANE">
</g>
<g id="INCUBATOR_1_">
</g>
<g id="_x3D_">
</g>
<g id="COLOR_PALETTE">
</g>
<g id="TAGS">
</g>
</svg>